<svg width="112.529" height="27.026" viewBox="0 0 112.529 27.026"  xmlns="http://www.w3.org/2000/svg"><g id="svgGroup" stroke-linecap="round" fill-rule="evenodd" font-size="9pt" stroke="#000" stroke-width="0.25mm" fill="#000" style="stroke:#000;stroke-width:0.25mm;fill:#000"><path d="M 14.429 10.02 A 0.235 0.235 0 0 0 14.28 10.076 Q 14.194 10.145 14.121 10.298 A 17.344 17.344 0 0 1 13.4 11.573 A 14.412 14.412 0 0 1 12.942 12.261 A 12.626 12.626 0 0 1 12.318 13.074 A 9.324 9.324 0 0 1 11.689 13.755 A 6.828 6.828 0 0 1 11.141 14.239 Q 10.79 14.514 10.444 14.7 A 3.159 3.159 0 0 1 9.961 14.912 Q 9.678 15.007 9.412 15.025 A 1.828 1.828 0 0 1 9.287 15.029 A 2.119 2.119 0 0 1 8.313 14.802 A 2 2 0 0 1 7.997 14.599 Q 7.697 14.366 7.368 13.971 A 6.603 6.603 0 0 1 7.346 13.945 A 9.072 9.072 0 0 1 6.971 13.455 Q 6.597 12.933 6.16 12.202 A 46.651 46.651 0 0 1 5.808 11.603 Q 5.252 10.642 4.526 9.302 A 2.267 2.267 0 0 0 4.417 9.122 Q 4.309 8.962 4.197 8.87 A 0.904 0.904 0 0 0 4.105 8.802 Q 3.999 8.736 3.91 8.731 A 0.255 0.255 0 0 0 3.897 8.73 A 0.21 0.21 0 0 0 3.765 8.781 Q 3.686 8.844 3.613 8.984 A 1.625 1.625 0 0 0 3.545 9.133 A 3.146 3.146 0 0 0 3.449 9.417 Q 3.361 9.714 3.29 10.124 A 10.696 10.696 0 0 0 3.267 10.261 A 13.641 13.641 0 0 0 3.186 10.846 Q 3.125 11.368 3.084 12.004 A 30.387 30.387 0 0 0 3.034 13.076 A 40.237 40.237 0 0 0 3.018 14.253 Q 3.018 14.985 3.098 15.718 Q 3.179 16.45 3.179 17.227 A 0.888 0.888 0 0 1 3.032 17.717 A 1.388 1.388 0 0 1 2.724 18.053 A 1.631 1.631 0 0 1 2.644 18.113 A 1.882 1.882 0 0 1 2.317 18.294 A 2.405 2.405 0 0 1 2.073 18.384 A 2.318 2.318 0 0 1 1.411 18.486 A 2.599 2.599 0 0 1 1.377 18.486 A 0.969 0.969 0 0 1 0.557 18.061 Q 0.442 17.904 0.354 17.689 A 2.419 2.419 0 0 1 0.322 17.607 A 3.856 3.856 0 0 1 0.167 17.03 Q 0.042 16.399 0.011 15.466 A 19.904 19.904 0 0 1 0 14.795 A 38.424 38.424 0 0 1 0.068 12.46 A 28.777 28.777 0 0 1 0.271 10.349 A 22.206 22.206 0 0 1 0.541 8.764 Q 0.702 8.001 0.906 7.346 A 11.912 11.912 0 0 1 1.047 6.921 Q 1.408 5.903 1.865 5.213 A 4.482 4.482 0 0 1 2.249 4.709 A 2.726 2.726 0 0 1 2.747 4.263 A 1.849 1.849 0 0 1 3.809 3.926 A 1.436 1.436 0 0 1 4.554 4.144 Q 4.779 4.278 4.997 4.496 A 3.543 3.543 0 0 1 5.266 4.797 Q 5.962 5.669 6.768 7.617 A 15.34 15.34 0 0 0 7.28 8.746 A 13.479 13.479 0 0 0 7.463 9.097 A 12.066 12.066 0 0 0 7.825 9.721 Q 8.018 10.03 8.21 10.291 Q 8.496 10.677 8.77 10.936 A 2.955 2.955 0 0 0 8.936 11.082 A 1.868 1.868 0 0 0 9.128 11.22 Q 9.365 11.367 9.565 11.367 Q 9.844 11.367 10.1 11.243 Q 10.325 11.134 10.605 10.8 A 4.136 4.136 0 0 0 10.686 10.701 A 5.221 5.221 0 0 0 10.904 10.402 Q 11.155 10.031 11.462 9.478 A 27.57 27.57 0 0 0 11.699 9.041 Q 12.074 8.335 12.568 7.324 A 26.279 26.279 0 0 1 12.822 6.83 Q 13.024 6.445 13.198 6.152 A 5.387 5.387 0 0 1 13.407 5.827 Q 13.521 5.662 13.635 5.529 A 2.767 2.767 0 0 1 13.755 5.398 A 2.03 2.03 0 0 1 14.022 5.166 A 1.526 1.526 0 0 1 14.341 4.988 A 1.699 1.699 0 0 1 14.787 4.877 A 2.127 2.127 0 0 1 15.029 4.863 Q 15.402 4.863 15.764 5.189 A 2.201 2.201 0 0 1 15.923 5.347 A 4.511 4.511 0 0 1 16.276 5.793 Q 16.436 6.021 16.593 6.293 A 8.856 8.856 0 0 1 16.78 6.636 Q 17.17 7.389 17.542 8.374 A 22.735 22.735 0 0 1 17.593 8.511 A 50.458 50.458 0 0 1 18.174 10.172 A 56.506 56.506 0 0 1 18.362 10.752 Q 18.735 11.924 19.094 13.132 A 204.859 204.859 0 0 0 19.448 14.31 A 175.052 175.052 0 0 0 19.79 15.425 A 68.794 68.794 0 0 0 19.83 15.569 Q 19.887 15.777 19.915 15.872 Q 19.951 15.996 19.951 16.172 A 0.85 0.85 0 0 1 19.872 16.526 A 1.104 1.104 0 0 1 19.797 16.663 A 1.636 1.636 0 0 1 19.485 17.022 A 1.919 1.919 0 0 1 19.395 17.095 A 2.137 2.137 0 0 1 18.899 17.376 A 2.422 2.422 0 0 1 18.831 17.402 A 1.854 1.854 0 0 1 18.401 17.508 A 1.643 1.643 0 0 1 18.208 17.52 A 2.856 2.856 0 0 1 17.972 17.51 Q 17.74 17.491 17.587 17.431 A 0.786 0.786 0 0 1 17.571 17.424 A 0.682 0.682 0 0 1 17.279 17.188 A 0.913 0.913 0 0 1 17.212 17.08 A 0.748 0.748 0 0 1 17.181 17.015 Q 17.106 16.841 16.963 16.377 Q 16.842 15.984 16.69 15.491 A 3015.096 3015.096 0 0 0 16.545 15.022 A 105.996 105.996 0 0 0 16.293 14.214 A 126.792 126.792 0 0 0 16.018 13.359 A 35.595 35.595 0 0 0 15.732 12.515 A 28.297 28.297 0 0 0 15.447 11.741 A 15.243 15.243 0 0 0 15.236 11.221 Q 15.062 10.817 14.897 10.51 Q 14.669 10.084 14.484 10.028 A 0.189 0.189 0 0 0 14.429 10.02 Z M 60.665 6.634 A 8.072 8.072 0 0 0 59.692 6.577 A 8.997 8.997 0 0 0 57.488 6.848 A 9.766 9.766 0 0 0 55.444 7.61 Q 54.478 8.101 53.657 8.774 A 9.261 9.261 0 0 0 53.505 8.902 A 8.279 8.279 0 0 0 52.244 10.247 Q 51.65 11.045 51.321 11.946 A 5.272 5.272 0 0 0 50.991 13.77 A 4.809 4.809 0 0 0 51.001 14.073 A 4.06 4.06 0 0 0 51.343 15.491 A 3.922 3.922 0 0 0 52.332 16.838 Q 52.969 17.402 53.848 17.717 A 5.15 5.15 0 0 0 54.53 17.909 A 6.021 6.021 0 0 0 55.767 18.032 A 10.411 10.411 0 0 0 56.389 18.014 A 8.727 8.727 0 0 0 59.846 17.102 A 8.372 8.372 0 0 0 61.366 16.11 A 9.946 9.946 0 0 0 63.062 14.312 A 0.527 0.527 0 0 1 63.115 14.234 A 0.337 0.337 0 0 1 63.384 14.106 A 0.199 0.199 0 0 1 63.534 14.166 Q 63.603 14.238 63.624 14.397 A 1.159 1.159 0 0 1 63.633 14.546 A 50.913 50.913 0 0 1 63.483 16.529 Q 62.733 24.302 59.883 24.302 Q 59.312 24.302 58.931 24.075 Q 58.55 23.848 58.286 23.511 Q 58.022 23.174 57.847 22.771 A 17.608 17.608 0 0 0 57.673 22.385 A 13.975 13.975 0 0 0 57.502 22.031 Q 57.416 21.858 57.323 21.713 A 2.391 2.391 0 0 0 57.144 21.467 A 0.784 0.784 0 0 0 57.11 21.43 A 0.58 0.58 0 0 0 56.675 21.24 Q 56.411 21.24 56.045 21.431 A 3.735 3.735 0 0 0 55.999 21.455 A 4.026 4.026 0 0 0 55.342 21.899 Q 55.005 22.178 54.771 22.471 Q 54.536 22.764 54.536 22.983 A 1.829 1.829 0 0 0 54.553 23.227 Q 54.593 23.528 54.733 23.841 A 3.321 3.321 0 0 0 55.027 24.36 A 5.328 5.328 0 0 0 55.396 24.839 A 6.196 6.196 0 0 0 56.279 25.671 A 7.242 7.242 0 0 0 57.957 26.646 A 5.383 5.383 0 0 0 58.634 26.878 A 4.204 4.204 0 0 0 59.722 27.026 A 6.125 6.125 0 0 0 60.303 26.999 A 4.722 4.722 0 0 0 62.886 25.972 A 4.969 4.969 0 0 0 63.659 25.179 Q 64.07 24.658 64.419 23.973 A 11.316 11.316 0 0 0 65.01 22.573 Q 65.548 21.035 65.891 18.895 A 39.752 39.752 0 0 0 66.196 16.487 Q 66.563 12.744 66.563 7.383 A 0.936 0.936 0 0 0 66.487 7.004 A 0.951 0.951 0 0 0 66.24 6.672 Q 66.029 6.485 65.716 6.42 A 1.758 1.758 0 0 0 65.361 6.387 Q 65.067 6.387 64.843 6.438 A 1.262 1.262 0 0 0 64.585 6.526 A 2.771 2.771 0 0 0 64.485 6.576 Q 64.261 6.694 64.116 6.826 A 4.614 4.614 0 0 0 64.068 6.871 Q 63.997 6.938 63.937 7 A 2.615 2.615 0 0 0 63.823 7.126 Q 63.77 7.19 63.714 7.224 A 0.264 0.264 0 0 1 63.574 7.266 Q 63.453 7.265 63.217 7.204 A 4.999 4.999 0 0 1 63.047 7.156 A 11.863 11.863 0 0 0 62.867 7.103 Q 62.711 7.059 62.532 7.013 A 23.323 23.323 0 0 0 62.168 6.921 Q 61.655 6.797 61.025 6.687 A 7.017 7.017 0 0 0 60.665 6.634 Z M 38.001 5.933 A 0.547 0.547 0 0 0 37.939 6.182 A 2.448 2.448 0 0 0 37.943 6.312 Q 37.958 6.583 38.027 7.046 Q 38.115 7.632 38.247 8.826 A 50.315 50.315 0 0 1 38.275 9.086 Q 38.395 10.227 38.533 11.99 A 76.952 76.952 0 0 1 38.548 12.189 Q 38.655 13.606 38.751 15.551 A 237.129 237.129 0 0 1 38.818 17.007 Q 38.848 17.388 39.126 17.607 A 0.872 0.872 0 0 0 39.347 17.733 Q 39.586 17.827 39.932 17.827 A 3.457 3.457 0 0 0 40.018 17.826 Q 40.751 17.808 41.235 17.476 A 1.69 1.69 0 0 0 41.299 17.43 A 1.279 1.279 0 0 0 41.821 16.538 A 87.055 87.055 0 0 1 41.988 15.251 Q 42.073 14.637 42.159 14.081 A 46.803 46.803 0 0 1 42.371 12.832 Q 42.551 11.849 42.741 11.084 A 16.117 16.117 0 0 1 42.964 10.269 Q 43.272 9.258 43.601 8.782 A 1.749 1.749 0 0 1 43.745 8.6 Q 44.012 8.306 44.312 8.306 A 0.501 0.501 0 0 1 44.489 8.339 Q 44.693 8.416 44.898 8.67 A 2.5 2.5 0 0 1 45.073 8.921 Q 45.335 9.344 45.6 10.033 A 14.74 14.74 0 0 1 45.842 10.715 Q 46.085 11.452 46.333 12.404 A 47.838 47.838 0 0 1 46.633 13.623 A 72.834 72.834 0 0 1 46.747 14.119 Q 47.096 15.665 47.461 17.578 Q 47.534 17.944 47.805 18.076 Q 48.004 18.173 48.389 18.199 A 4.555 4.555 0 0 0 48.691 18.208 Q 48.999 18.208 49.307 18.127 A 2.29 2.29 0 0 0 49.411 18.098 A 1.987 1.987 0 0 0 49.863 17.893 A 1.247 1.247 0 0 0 50.266 17.498 A 0.949 0.949 0 0 0 50.388 17.205 A 1.236 1.236 0 0 0 50.42 16.919 A 2.011 2.011 0 0 0 50.418 16.829 A 2.424 2.424 0 0 0 50.405 16.67 Q 50.391 16.538 50.361 16.377 A 95.655 95.655 0 0 0 49.986 14.497 Q 49.798 13.607 49.611 12.814 A 47.227 47.227 0 0 0 49.16 11.052 Q 48.775 9.668 48.364 8.627 A 13.054 13.054 0 0 0 47.893 7.566 Q 47.477 6.737 47.02 6.198 A 3.61 3.61 0 0 0 46.458 5.654 A 2.749 2.749 0 0 0 44.751 5.068 A 2.432 2.432 0 0 0 44.162 5.139 Q 42.979 5.433 42.174 6.955 A 8.573 8.573 0 0 0 41.66 8.159 Q 41.564 8.489 41.469 8.579 A 0.106 0.106 0 0 1 41.397 8.613 A 0.094 0.094 0 0 1 41.35 8.601 Q 41.311 8.579 41.281 8.518 A 0.481 0.481 0 0 1 41.257 8.459 A 1.751 1.751 0 0 1 41.239 8.401 Q 41.209 8.299 41.176 8.15 A 7.421 7.421 0 0 1 41.147 8.013 A 39.449 39.449 0 0 0 41.147 8.002 Q 41.059 7.057 40.964 6.467 Q 40.899 6.059 40.823 5.776 A 3.053 3.053 0 0 0 40.752 5.544 A 2.139 2.139 0 0 0 40.729 5.482 Q 40.659 5.305 40.578 5.197 A 0.517 0.517 0 0 0 40.481 5.098 A 0.552 0.552 0 0 0 40.296 5.005 A 0.685 0.685 0 0 0 40.107 4.98 A 2.865 2.865 0 0 0 39.324 5.09 A 3.818 3.818 0 0 0 39.044 5.181 A 3.083 3.083 0 0 0 38.628 5.369 Q 38.32 5.537 38.13 5.75 A 1.054 1.054 0 0 0 38.1 5.784 Q 38.039 5.858 38.001 5.933 Z M 72.085 12.817 A 10.332 10.332 0 0 0 72.143 13.95 Q 72.203 14.495 72.326 14.946 A 3.972 3.972 0 0 0 72.686 15.85 Q 73.28 16.908 74.405 16.919 A 2.42 2.42 0 0 0 74.429 16.919 A 2.266 2.266 0 0 0 75.754 16.494 A 3.284 3.284 0 0 0 76.441 15.841 A 4.321 4.321 0 0 0 76.802 15.308 A 5.695 5.695 0 0 0 77.213 14.418 A 7.73 7.73 0 0 0 77.483 13.499 A 9.382 9.382 0 0 0 77.691 12.118 A 11.536 11.536 0 0 0 77.725 11.221 A 16.348 16.348 0 0 0 77.716 10.688 Q 77.703 10.268 77.666 9.924 A 26.609 26.609 0 0 0 77.61 9.435 Q 77.581 9.205 77.55 9.001 A 15.787 15.787 0 0 0 77.542 8.943 A 46.35 46.35 0 0 0 77.485 8.583 Q 77.459 8.418 77.434 8.27 A 27.228 27.228 0 0 0 77.417 8.174 A 3.957 3.957 0 0 1 77.364 7.724 A 3.381 3.381 0 0 1 77.358 7.529 A 0.866 0.866 0 0 1 77.404 7.24 Q 77.486 7.008 77.714 6.871 A 0.939 0.939 0 0 1 77.754 6.848 Q 78.088 6.669 78.757 6.641 A 6.186 6.186 0 0 1 79.014 6.636 A 3.897 3.897 0 0 1 79.682 6.689 Q 80.036 6.751 80.32 6.884 A 1.891 1.891 0 0 1 80.72 7.134 A 1.61 1.61 0 0 1 81.28 8.084 A 2.46 2.46 0 0 1 81.328 8.584 A 22.841 22.841 0 0 1 81.202 11.045 A 16.929 16.929 0 0 1 80.823 13.242 A 13.367 13.367 0 0 1 80.252 15.042 A 9.703 9.703 0 0 1 79.373 16.75 A 7.29 7.29 0 0 1 78.113 18.225 A 6.287 6.287 0 0 1 77.08 18.97 A 5.861 5.861 0 0 1 74.373 19.739 A 6.996 6.996 0 0 1 74.063 19.746 A 5.012 5.012 0 0 1 72.32 19.447 A 4.737 4.737 0 0 1 71.873 19.255 Q 70.869 18.765 70.144 17.878 A 6.282 6.282 0 0 1 69.265 16.431 A 7.656 7.656 0 0 1 69.009 15.769 A 7.92 7.92 0 0 1 68.639 13.973 A 9.708 9.708 0 0 1 68.599 13.081 A 23.871 23.871 0 0 1 68.61 12.357 A 28.748 28.748 0 0 1 68.628 11.895 A 35.82 35.82 0 0 1 68.665 11.241 A 44.381 44.381 0 0 1 68.716 10.54 A 45.433 45.433 0 0 1 68.784 9.783 A 57.87 57.87 0 0 1 68.87 8.965 A 300.579 300.579 0 0 1 68.97 8.079 A 381.7 381.7 0 0 1 69.082 7.119 A 0.914 0.914 0 0 1 69.439 6.473 A 1.173 1.173 0 0 1 69.485 6.438 A 1.324 1.324 0 0 1 69.962 6.228 Q 70.148 6.185 70.364 6.182 A 2.375 2.375 0 0 1 70.4 6.182 A 4.314 4.314 0 0 1 71.058 6.23 A 3.736 3.736 0 0 1 71.338 6.284 A 3.511 3.511 0 0 1 71.699 6.388 Q 71.888 6.454 72.047 6.538 A 2.133 2.133 0 0 1 72.092 6.563 A 1.915 1.915 0 0 1 72.359 6.74 A 1.421 1.421 0 0 1 72.59 6.973 A 0.906 0.906 0 0 1 72.72 7.195 A 0.739 0.739 0 0 1 72.773 7.471 A 1.886 1.886 0 0 1 72.767 7.621 Q 72.746 7.875 72.664 8.298 A 47.988 47.988 0 0 0 72.565 8.823 Q 72.499 9.18 72.429 9.587 Q 72.305 10.313 72.195 11.155 A 12.845 12.845 0 0 0 72.085 12.817 Z M 103.286 12.817 A 10.332 10.332 0 0 0 103.344 13.95 Q 103.404 14.495 103.527 14.946 A 3.972 3.972 0 0 0 103.887 15.85 Q 104.481 16.908 105.606 16.919 A 2.42 2.42 0 0 0 105.63 16.919 A 2.266 2.266 0 0 0 106.956 16.494 A 3.284 3.284 0 0 0 107.642 15.841 A 4.321 4.321 0 0 0 108.003 15.308 A 5.695 5.695 0 0 0 108.414 14.418 A 7.73 7.73 0 0 0 108.684 13.499 A 9.382 9.382 0 0 0 108.892 12.118 A 11.536 11.536 0 0 0 108.926 11.221 A 16.348 16.348 0 0 0 108.918 10.688 Q 108.904 10.268 108.867 9.924 A 26.609 26.609 0 0 0 108.811 9.435 Q 108.782 9.205 108.751 9.001 A 15.787 15.787 0 0 0 108.743 8.943 A 46.35 46.35 0 0 0 108.686 8.583 Q 108.66 8.418 108.635 8.27 A 27.228 27.228 0 0 0 108.618 8.174 A 3.957 3.957 0 0 1 108.565 7.724 A 3.381 3.381 0 0 1 108.56 7.529 A 0.866 0.866 0 0 1 108.605 7.24 Q 108.687 7.008 108.915 6.871 A 0.939 0.939 0 0 1 108.955 6.848 Q 109.289 6.669 109.959 6.641 A 6.186 6.186 0 0 1 110.215 6.636 A 3.897 3.897 0 0 1 110.883 6.689 Q 111.237 6.751 111.522 6.884 A 1.891 1.891 0 0 1 111.921 7.134 A 1.61 1.61 0 0 1 112.481 8.084 A 2.46 2.46 0 0 1 112.529 8.584 A 22.841 22.841 0 0 1 112.403 11.045 A 16.929 16.929 0 0 1 112.024 13.242 A 13.367 13.367 0 0 1 111.454 15.042 A 9.703 9.703 0 0 1 110.574 16.75 A 7.29 7.29 0 0 1 109.314 18.225 A 6.287 6.287 0 0 1 108.281 18.97 A 5.861 5.861 0 0 1 105.574 19.739 A 6.996 6.996 0 0 1 105.264 19.746 A 5.012 5.012 0 0 1 103.522 19.447 A 4.737 4.737 0 0 1 103.074 19.255 Q 102.07 18.765 101.345 17.878 A 6.282 6.282 0 0 1 100.466 16.431 A 7.656 7.656 0 0 1 100.21 15.769 A 7.92 7.92 0 0 1 99.84 13.973 A 9.708 9.708 0 0 1 99.8 13.081 A 23.871 23.871 0 0 1 99.811 12.357 A 28.748 28.748 0 0 1 99.829 11.895 A 35.82 35.82 0 0 1 99.866 11.241 A 44.381 44.381 0 0 1 99.917 10.54 A 45.433 45.433 0 0 1 99.985 9.783 A 57.87 57.87 0 0 1 100.071 8.965 A 300.579 300.579 0 0 1 100.172 8.079 A 381.7 381.7 0 0 1 100.283 7.119 A 0.914 0.914 0 0 1 100.64 6.473 A 1.173 1.173 0 0 1 100.686 6.438 A 1.324 1.324 0 0 1 101.163 6.228 Q 101.349 6.185 101.565 6.182 A 2.375 2.375 0 0 1 101.602 6.182 A 4.314 4.314 0 0 1 102.259 6.23 A 3.736 3.736 0 0 1 102.539 6.284 A 3.511 3.511 0 0 1 102.9 6.388 Q 103.089 6.454 103.249 6.538 A 2.133 2.133 0 0 1 103.293 6.563 A 1.915 1.915 0 0 1 103.56 6.74 A 1.421 1.421 0 0 1 103.792 6.973 A 0.906 0.906 0 0 1 103.921 7.195 A 0.739 0.739 0 0 1 103.975 7.471 A 1.886 1.886 0 0 1 103.968 7.621 Q 103.947 7.875 103.865 8.298 A 47.988 47.988 0 0 0 103.766 8.823 Q 103.7 9.18 103.63 9.587 Q 103.506 10.313 103.396 11.155 A 12.845 12.845 0 0 0 103.286 12.817 Z M 32.534 10.137 L 32.593 11.309 Q 32.651 13.403 33.186 14.37 A 2.498 2.498 0 0 0 33.513 14.837 Q 33.763 15.115 34.066 15.238 A 1.362 1.362 0 0 0 34.585 15.337 Q 34.893 15.337 35.134 15.278 A 3.945 3.945 0 0 0 35.48 15.178 A 3.447 3.447 0 0 0 35.588 15.139 Q 35.801 15.059 35.991 15 Q 36.182 14.941 36.372 14.941 A 0.727 0.727 0 0 1 36.854 15.124 A 1.049 1.049 0 0 1 36.965 15.234 A 1.029 1.029 0 0 1 37.222 15.925 A 1.299 1.299 0 0 1 37.222 15.938 Q 37.222 16.348 36.907 16.758 A 2.922 2.922 0 0 1 36.463 17.216 A 3.775 3.775 0 0 1 36.079 17.498 A 4.651 4.651 0 0 1 35.245 17.918 A 5.492 5.492 0 0 1 34.922 18.032 Q 34.277 18.237 33.618 18.237 A 2.552 2.552 0 0 1 31.888 17.565 A 3.555 3.555 0 0 1 31.611 17.292 A 4.109 4.109 0 0 1 30.971 16.338 Q 30.74 15.873 30.572 15.298 A 9.149 9.149 0 0 1 30.381 14.517 A 1.016 1.016 0 0 0 30.343 14.41 Q 30.297 14.304 30.24 14.258 A 0.147 0.147 0 0 0 30.147 14.224 A 0.338 0.338 0 0 0 29.926 14.307 A 0.543 0.543 0 0 0 29.839 14.399 Q 28.389 16.23 26.748 17.146 Q 25.107 18.062 23.511 18.062 A 4.377 4.377 0 0 1 22.758 18 A 3.459 3.459 0 0 1 22.163 17.842 A 3.031 3.031 0 0 1 21.484 17.496 A 2.643 2.643 0 0 1 21.145 17.219 A 2.696 2.696 0 0 1 20.545 16.345 A 3.134 3.134 0 0 1 20.501 16.238 A 3.269 3.269 0 0 1 20.3 15.418 A 4.121 4.121 0 0 1 20.273 14.941 A 5.138 5.138 0 0 1 20.431 13.705 A 6.724 6.724 0 0 1 20.72 12.817 A 10.466 10.466 0 0 1 21.568 11.164 A 12.241 12.241 0 0 1 21.929 10.62 A 14.688 14.688 0 0 1 23.569 8.678 A 16.151 16.151 0 0 1 23.694 8.555 Q 24.697 7.573 25.803 6.826 A 11.578 11.578 0 0 1 27.483 5.879 A 10.233 10.233 0 0 1 28.052 5.64 A 6.889 6.889 0 0 1 29.203 5.303 A 5.374 5.374 0 0 1 30.234 5.2 Q 31.04 5.2 31.787 5.449 A 4.633 4.633 0 0 1 32.751 5.894 A 4.103 4.103 0 0 1 33.106 6.138 A 3.438 3.438 0 0 1 34.021 7.192 A 2.732 2.732 0 0 1 34.365 8.507 A 3.215 3.215 0 0 1 34.365 8.555 A 1.339 1.339 0 0 1 34.226 9.148 Q 34.087 9.434 33.853 9.646 A 1.837 1.837 0 0 1 33.318 9.983 A 1.61 1.61 0 0 1 32.695 10.107 A 0.199 0.199 0 0 0 32.671 10.109 Q 32.656 10.111 32.644 10.115 Q 32.622 10.122 32.593 10.122 Q 32.564 10.137 32.534 10.137 Z M 91.025 7.046 A 1.738 1.738 0 0 0 90.458 7.136 A 1.55 1.55 0 0 0 90.073 7.332 A 2.23 2.23 0 0 0 89.591 7.794 A 2.879 2.879 0 0 0 89.37 8.123 A 4.475 4.475 0 0 0 89.08 8.728 A 5.98 5.98 0 0 0 88.887 9.309 A 10.971 10.971 0 0 0 88.678 10.203 A 13.55 13.55 0 0 0 88.579 10.796 Q 88.462 11.602 88.418 12.48 A 35.489 35.489 0 0 0 88.374 14.253 A 27.596 27.596 0 0 0 88.469 16.56 A 28.127 28.127 0 0 1 88.546 17.784 A 21.974 21.974 0 0 1 88.564 18.662 A 1.359 1.359 0 0 1 88.493 19.113 A 1.144 1.144 0 0 1 88.096 19.651 A 1.562 1.562 0 0 1 87.61 19.896 Q 87.39 19.965 87.123 19.992 A 3.578 3.578 0 0 1 86.763 20.01 A 2.112 2.112 0 0 1 86.613 20.004 Q 86.512 19.997 86.397 19.98 A 1.324 1.324 0 0 1 86.008 19.863 A 1.036 1.036 0 0 1 85.686 19.622 Q 85.547 19.468 85.532 19.204 Q 85.4 17.915 85.151 16.567 A 30.973 30.973 0 0 0 84.529 13.879 A 26.987 26.987 0 0 0 83.635 11.221 A 24.601 24.601 0 0 0 82.441 8.643 Q 82.324 8.423 82.244 8.232 Q 82.163 8.042 82.163 7.866 Q 82.163 7.697 82.281 7.505 A 1.332 1.332 0 0 1 82.361 7.39 A 2.263 2.263 0 0 1 82.648 7.084 A 2.808 2.808 0 0 1 82.859 6.914 A 2.864 2.864 0 0 1 83.518 6.555 A 2.106 2.106 0 0 1 83.915 6.443 A 1.726 1.726 0 0 1 84.214 6.416 Q 84.644 6.416 84.995 6.875 A 2.493 2.493 0 0 1 85.195 7.185 A 4.458 4.458 0 0 1 85.43 7.69 Q 85.654 8.255 85.861 9.097 A 20.683 20.683 0 0 1 85.986 9.639 Q 86.054 9.908 86.096 10.029 A 1.072 1.072 0 0 0 86.104 10.049 A 0.35 0.35 0 0 0 86.124 10.094 Q 86.153 10.147 86.191 10.161 A 0.085 0.085 0 0 0 86.221 10.166 Q 86.362 10.166 86.413 9.781 A 2.597 2.597 0 0 0 86.426 9.668 A 11.262 11.262 0 0 1 86.627 8.525 Q 86.787 7.837 87.026 7.273 A 6.092 6.092 0 0 1 87.5 6.364 A 4.635 4.635 0 0 1 88.088 5.618 A 3.957 3.957 0 0 1 89.553 4.658 A 4.928 4.928 0 0 1 90.815 4.376 A 6.011 6.011 0 0 1 91.377 4.351 A 6.704 6.704 0 0 1 92.534 4.453 A 5.096 5.096 0 0 1 93.156 4.601 A 4.064 4.064 0 0 1 93.589 4.761 A 2.936 2.936 0 0 1 93.984 4.968 A 2.121 2.121 0 0 1 94.351 5.259 A 1.08 1.08 0 0 1 94.54 5.509 A 0.849 0.849 0 0 1 94.644 5.918 Q 94.644 6.182 94.534 6.541 A 3.861 3.861 0 0 1 94.248 7.229 A 2.588 2.588 0 0 1 94.037 7.563 A 2.061 2.061 0 0 1 93.845 7.786 Q 93.686 7.944 93.524 7.992 A 0.495 0.495 0 0 1 93.384 8.013 A 0.932 0.932 0 0 1 92.966 7.912 A 1.16 1.16 0 0 1 92.871 7.859 A 347.054 347.054 0 0 0 92.613 7.7 A 425.629 425.629 0 0 0 92.336 7.529 A 7.038 7.038 0 0 0 91.736 7.2 A 1.52 1.52 0 0 0 91.23 7.057 A 1.882 1.882 0 0 0 91.025 7.046 Z M 94.233 6.778 A 0.979 0.979 0 0 0 93.897 7.529 Q 93.897 7.866 93.992 8.782 Q 94.063 9.468 94.143 10.415 A 151.904 151.904 0 0 1 94.197 11.074 Q 94.307 12.451 94.402 14.216 A 62.104 62.104 0 0 1 94.46 15.576 A 76.03 76.03 0 0 1 94.497 18.003 A 1.057 1.057 0 0 0 94.522 18.24 A 0.684 0.684 0 0 0 94.753 18.625 A 0.8 0.8 0 0 0 94.908 18.726 Q 95.032 18.787 95.187 18.815 A 1.572 1.572 0 0 0 95.464 18.838 A 4.403 4.403 0 0 0 95.994 18.808 Q 96.273 18.774 96.501 18.702 A 1.733 1.733 0 0 0 96.98 18.472 A 1.163 1.163 0 0 0 97.441 17.824 A 1.632 1.632 0 0 0 97.5 17.373 Q 97.5 16.67 97.471 15.82 Q 97.441 14.971 97.397 14.055 Q 97.354 13.14 97.302 12.195 A 99.469 99.469 0 0 0 97.289 11.96 A 90.587 90.587 0 0 0 97.185 10.364 Q 97.119 9.478 97.053 8.687 Q 97.019 8.279 96.987 7.914 A 125.392 125.392 0 0 0 96.929 7.266 A 0.865 0.865 0 0 0 96.442 6.532 Q 96.258 6.438 96.007 6.395 A 2.863 2.863 0 0 0 95.522 6.357 A 3.063 3.063 0 0 0 95.373 6.361 Q 95.111 6.374 94.889 6.432 A 1.592 1.592 0 0 0 94.343 6.687 A 1.37 1.37 0 0 0 94.233 6.778 Z M 56.221 15.337 Q 58.228 15.337 59.897 14.07 A 8.377 8.377 0 0 0 61.447 12.515 Q 62.027 11.767 62.527 10.829 A 14.77 14.77 0 0 0 62.754 10.386 A 6.284 6.284 0 0 0 62.768 10.344 Q 62.781 10.303 62.79 10.273 A 1.807 1.807 0 0 0 62.798 10.247 A 0.386 0.386 0 0 0 62.812 10.162 A 0.45 0.45 0 0 0 62.813 10.137 Q 62.813 9.992 62.513 9.834 A 1.82 1.82 0 0 0 62.505 9.829 A 2.4 2.4 0 0 0 62.247 9.714 Q 62.114 9.664 61.957 9.618 A 5.25 5.25 0 0 0 61.699 9.551 A 9.246 9.246 0 0 0 61.184 9.446 Q 60.893 9.395 60.564 9.353 Q 59.927 9.272 59.282 9.272 A 5.827 5.827 0 0 0 57.275 9.624 A 6.36 6.36 0 0 0 55.949 10.283 A 5.714 5.714 0 0 0 55.562 10.562 A 5.164 5.164 0 0 0 54.639 11.487 A 4.631 4.631 0 0 0 54.36 11.895 A 3.122 3.122 0 0 0 53.978 12.815 A 2.799 2.799 0 0 0 53.906 13.447 A 1.889 1.889 0 0 0 54.016 14.103 A 1.643 1.643 0 0 0 54.543 14.824 A 2.226 2.226 0 0 0 55.415 15.246 Q 55.782 15.337 56.221 15.337 Z M 29.904 9.997 A 5.835 5.835 0 0 0 29.751 10.269 A 23.277 23.277 0 0 1 28.95 11.604 Q 28.451 12.372 27.953 12.984 A 9.826 9.826 0 0 1 26.909 14.092 A 7.252 7.252 0 0 1 26.134 14.704 Q 25.153 15.366 24.287 15.366 A 1.317 1.317 0 0 1 24.023 15.341 A 0.897 0.897 0 0 1 23.547 15.088 A 0.859 0.859 0 0 1 23.461 14.984 Q 23.353 14.831 23.308 14.627 A 1.471 1.471 0 0 1 23.276 14.312 A 2.114 2.114 0 0 1 23.293 14.052 Q 23.322 13.815 23.404 13.553 A 4.251 4.251 0 0 1 23.599 13.052 A 7.19 7.19 0 0 1 23.894 12.478 A 8.884 8.884 0 0 1 24.448 11.631 A 11.113 11.113 0 0 1 24.652 11.362 A 12.461 12.461 0 0 1 25.657 10.232 A 14.576 14.576 0 0 1 25.913 9.982 A 12.891 12.891 0 0 1 27.048 9.016 A 9.15 9.15 0 0 1 27.622 8.617 A 7.217 7.217 0 0 1 28.447 8.159 A 4.481 4.481 0 0 1 28.685 8.056 Q 28.943 7.953 29.18 7.899 A 2.291 2.291 0 0 1 29.692 7.837 A 1.519 1.519 0 0 1 30.014 7.869 A 1.041 1.041 0 0 1 30.513 8.123 A 4.15 4.15 0 0 1 30.721 8.33 A 4.937 4.937 0 0 1 31.099 8.789 Q 31.187 8.921 31.187 9.038 A 0.141 0.141 0 0 1 31.14 9.144 Q 31.064 9.216 30.864 9.243 A 1.768 1.768 0 0 0 30.781 9.26 Q 30.636 9.293 30.517 9.348 A 0.923 0.923 0 0 0 30.234 9.543 A 1.415 1.415 0 0 0 30.19 9.592 Q 30.055 9.745 29.904 9.997 Z M 95.283 2.989 A 2.576 2.576 0 0 0 95.903 3.062 A 3.195 3.195 0 0 0 96.119 3.054 Q 96.759 3.011 97.156 2.703 A 1.143 1.143 0 0 0 97.547 2.165 A 1.378 1.378 0 0 0 97.617 1.714 Q 97.617 1.377 97.456 1.062 A 1.811 1.811 0 0 0 97.024 0.513 A 2.06 2.06 0 0 0 97.006 0.498 A 2.161 2.161 0 0 0 96.401 0.139 Q 96.05 0 95.669 0 A 3.323 3.323 0 0 0 95.504 0.004 Q 95.216 0.018 94.972 0.084 A 1.713 1.713 0 0 0 94.358 0.381 A 1.573 1.573 0 0 0 94.341 0.394 Q 94.107 0.581 93.989 0.822 A 1.243 1.243 0 0 0 93.867 1.377 A 1.648 1.648 0 0 0 93.867 1.388 A 1.428 1.428 0 0 0 94.028 2.051 A 1.753 1.753 0 0 0 94.46 2.585 A 1.784 1.784 0 0 0 94.678 2.742 A 2.082 2.082 0 0 0 95.105 2.937 A 2.334 2.334 0 0 0 95.283 2.989 Z" vector-effect="non-scaling-stroke"/></g></svg>